# File created by Blade
# Date/Time:  Wed Apr 08 17:00:23 2015
#---------------------------------------------------------
:version 1.10
:name HOM
:units
  mass 1.0
  length 1.000000
  angle deg
:documentation
     Acclaim Skeleton File
:root
   axis xyz
   order TX TY TZ RX RY RZ
   position 0.000000 0.000000 0.000000
   orientation 0 0 0
:bonedata
   begin
      id 1
      name Spine_dum
      direction 0.000000 1.000000 0.000000
      length 5.893853
      axis 0.0 0.0 0.0 xyz
   end
   begin
      id 2
      name LeftUpLeg_dum
      direction 1.000000 0.000000 0.000000
      length 3.697939
      axis 0.0 0.0 0.0 xyz
   end
   begin
      id 3
      name RightUpLeg_dum
      direction -1.000000 0.000000 0.000000
      length 3.697939
      axis 0.0 0.0 0.0 xyz
   end
   begin
      id 4
      name Spine
      direction 0.000000 1.000000 0.000000
      length 0.000000
      axis 0.0 0.0 0.0 xyz
      dof rx ry rz
   end
   begin
      id 5
      name Spine_dum1
      direction 0.000000 1.000000 0.000000
      length 16.447146
      axis 0.0 0.0 0.0 xyz
   end
   begin
      id 6
      name Spine_dum2
      direction 0.000000 1.000000 0.000000
      length 10.900383
      axis 0.0 0.0 0.0 xyz
   end
   begin
      id 7
      name Spine_dum3
      direction 0.000000 1.000000 0.000000
      length 10.900383
      axis 0.0 0.0 0.0 xyz
   end
   begin
      id 8
      name Head
      direction 0.000000 1.000000 0.000000
      length 4.527550
      axis 0.0 0.0 0.0 xyz
      dof rx ry rz
   end
   begin
      id 9
      name LeftShoulder
      direction 1.000000 0.000000 0.000000
      length 8.219464
      axis 0.0 0.0 -90.0 xyz
      dof rx ry rz
   end
   begin
      id 10
      name LeftArm
      direction 1.000000 0.000000 0.000000
      length 11.094937
      axis 0.0 0.0 -90.0 xyz
      dof rx ry rz
   end
   begin
      id 11
      name LeftForeArm
      direction 1.000000 0.000000 0.000000
      length 9.103875
      axis 0.0 0.0 -90.0 xyz
      dof ry rz rx
   end
   begin
      id 12
      name LeftHand
      direction 0.000000 0.000000 0.000000
      length 0.000000
      axis 0.0 0.0 -90.0 xyz
      dof rx ry rz
   end
   begin
      id 13
      name LeftHand_dum1
      direction 0.000000 0.000000 0.000000
      length 0.000000
      axis 0.0 0.0 -90.0 xyz
   end
   begin
      id 14
      name LeftHand_dum2
      direction 1.000000 0.000000 0.000000
      length 3.937000
      axis 0.0 0.0 -90.0 xyz
   end
   begin
      id 15
      name LeftHandThumb1
      direction 0.000000 0.000000 1.000000
      length 3.937000
      axis 0.0 0.0 -90.0 xyz
      dof rx rz ry
   end
   begin
      id 16
      name RightShoulder
      direction -1.000000 0.000000 0.000000
      length 8.219464
      axis 0.0 0.0 90.0 xyz
      dof rx ry rz
   end
   begin
      id 17
      name RightArm
      direction -1.000000 0.000000 0.000000
      length 11.094937
      axis 0.0 0.0 90.0 xyz
      dof rx ry rz
   end
   begin
      id 18
      name RightForeArm
      direction -1.000000 0.000000 0.000000
      length 9.103875
      axis 0.0 0.0 90.0 xyz
      dof ry rz rx
   end
   begin
      id 19
      name RightHand
      direction 0.000000 0.000000 0.000000
      length 0.000000
      axis 0.0 0.0 90.0 xyz
      dof rx ry rz
   end
   begin
      id 20
      name RightHand_dum1
      direction 0.000000 0.000000 0.000000
      length 0.000000
      axis 0.0 0.0 90.0 xyz
   end
   begin
      id 21
      name RightHand_dum2
      direction -1.000000 0.000000 0.000000
      length 3.937000
      axis 0.0 0.0 90.0 xyz
   end
   begin
      id 22
      name RightHandThumb1
      direction 0.000000 0.000000 1.000000
      length 3.937000
      axis 0.0 0.0 90.0 xyz
      dof rx rz ry
   end
   begin
      id 23
      name LeftUpLeg
      direction 0.000000 -1.000000 0.000000
      length 16.181467
      axis 0.0 0.0 0.0 xyz
      dof rx ry rz
   end
   begin
      id 24
      name LeftLeg
      direction 0.000000 -1.000000 0.000000
      length 16.501392
      axis 0.0 0.0 0.0 xyz
      dof rx ry rz
   end
   begin
      id 25
      name LeftFoot
      direction 0.000000 -0.258819 0.965926
      length 6.408245
      axis 15.0 0.0 0.0 xyz
      dof rx ry rz
   end
   begin
      id 26
      name LeftToeBase
      direction 0.000000 0.000000 1.000000
      length 2.952750
      axis 0.0 0.0 0.0 xyz
      dof rx ry rz
   end
   begin
      id 27
      name RightUpLeg
      direction 0.000000 -1.000000 0.000000
      length 16.181467
      axis 0.0 0.0 0.0 xyz
      dof rx ry rz
   end
   begin
      id 28
      name RightLeg
      direction 0.000000 -1.000000 0.000000
      length 16.501392
      axis 0.0 0.0 0.0 xyz
      dof rx ry rz
   end
   begin
      id 29
      name RightFoot
      direction 0.000000 -0.258819 0.965926
      length 6.408245
      axis 15.0 0.0 0.0 xyz
      dof rx ry rz
   end
   begin
      id 30
      name RightToeBase
      direction 0.000000 0.000000 1.000000
      length 2.952750
      axis 0.0 0.0 0.0 xyz
      dof rx ry rz
   end
:hierarchy
   begin
      root Spine_dum LeftUpLeg_dum RightUpLeg_dum
      Spine_dum Spine
      LeftUpLeg_dum LeftUpLeg
      RightUpLeg_dum RightUpLeg
      Spine Spine_dum1 Spine_dum2 Spine_dum3
      Spine_dum1 Head
      Spine_dum2 LeftShoulder
      Spine_dum3 RightShoulder
      LeftShoulder LeftArm
      LeftArm LeftForeArm
      LeftForeArm LeftHand
      LeftHand LeftHand_dum1 LeftHand_dum2
      LeftHand_dum1 LeftHandThumb1
      RightShoulder RightArm
      RightArm RightForeArm
      RightForeArm RightHand
      RightHand RightHand_dum1 RightHand_dum2
      RightHand_dum1 RightHandThumb1
      LeftUpLeg LeftLeg
      LeftLeg LeftFoot
      LeftFoot LeftToeBase
      RightUpLeg RightLeg
      RightLeg RightFoot
      RightFoot RightToeBase
   end

# File created by Blade
# Date/Time:  Wed Apr 08 17:00:17 2015
# Frame Rate: 120.000 fps
#------------------------------------------------------
:FULLY-SPECIFIED
:DEGREES
848
root 0.958555 35.656457 2.901802 -29.253721 -78.836853 15.979735
Spine 6.981460 1.490475 -6.910991
Head 1.123168 -8.116145 -7.990332
LeftShoulder 6.422417 -2.436752 24.728767
LeftArm 92.598068 46.046490 -43.494754
LeftForeArm -39.187054 0.000000 99.077316
LeftHand -33.614176 -0.000000 21.906076
LeftHandThumb1 -26.253704 0.000000 33.147579
RightShoulder -0.725215 -26.989139 -25.242227
RightArm 115.234907 18.244567 118.776816
RightForeArm 68.207831 0.000000 71.306197
RightHand 18.617274 -0.000000 -24.773040
RightHandThumb1 -24.326973 -0.000000 -32.862282
LeftUpLeg 15.289533 6.138939 5.293457
LeftLeg 11.881630 -0.000000 -0.000000
LeftFoot -14.434319 -1.841494 -11.254571
LeftToeBase 9.704930 -0.000000 -0.000000
RightUpLeg 24.735373 -17.204684 -18.162122
RightLeg 1.566766 -0.000000 -0.000000
RightFoot -12.234082 5.146769 19.938857
RightToeBase 14.332544 -0.000000 -0.000000
849
root 0.957539 35.656398 2.897674 -29.182781 -78.838458 15.886122
Spine 6.983798 1.487834 -6.931202
Head 1.308689 -8.268436 -7.874622
LeftShoulder 6.408976 -2.441592 24.760101
LeftArm 92.641231 46.041507 -43.456329
LeftForeArm -39.055212 -0.000000 99.098300
LeftHand -33.511514 -0.000000 22.030185
LeftHandThumb1 -26.253704 0.000000 33.147579
RightShoulder -0.748693 -27.004089 -25.183649
RightArm 115.312708 18.281397 118.787238
RightForeArm 68.323285 -0.000000 70.073328
RightHand 18.715045 -0.000000 -24.951518
RightHandThumb1 -24.326973 -0.000000 -32.862282
LeftUpLeg 15.311258 6.128165 5.320518
LeftLeg 11.878224 -0.000000 -0.000000
LeftFoot -14.419680 -1.873323 -11.296893
LeftToeBase 9.651754 -0.000000 -0.000000
RightUpLeg 24.750474 -17.194865 -18.140755
RightLeg 1.580308 -0.000000 -0.000000
RightFoot -12.243195 5.142096 19.931291
RightToeBase 14.344277 -0.000000 -0.000000
850
root 0.957055 35.655893 2.894349 -29.161213 -78.841592 15.840982
Spine 7.014232 1.471218 -6.952579
Head 1.418915 -8.410380 -7.771865
LeftShoulder 6.342935 -2.482358 24.788629
LeftArm 92.657716 46.073050 -43.461944
LeftForeArm -39.022375 0.000000 99.134604
LeftHand -33.489906 -0.000000 22.045592
LeftHandThumb1 -26.253704 0.000000 33.147579
RightShoulder -0.794231 -26.963601 -25.143934
RightArm 115.325889 18.312806 118.789166
RightForeArm 68.389261 -0.000000 68.878572
RightHand 18.624190 -0.000000 -24.944731
RightHandThumb1 -24.326973 -0.000000 -32.862282
LeftUpLeg 15.324558 6.139579 5.344530
LeftLeg 11.897139 -0.000000 -0.000000
LeftFoot -14.422994 -1.892663 -11.288845
LeftToeBase 9.654586 -0.000000 -0.000000
RightUpLeg 24.752397 -17.192574 -18.134344
RightLeg 1.623309 -0.000000 -0.000000
RightFoot -12.260337 5.152555 19.937165
RightToeBase 14.328335 -0.000000 -0.000000
851
root 0.956965 35.655824 2.890313 -29.111309 -78.856627 15.762824
Spine 7.018880 1.507145 -6.969750
Head 1.634839 -8.570272 -7.662767
LeftShoulder 6.381414 -2.485642 24.832189
LeftArm 92.649821 46.051120 -43.503336
LeftForeArm -39.048621 -0.000000 99.154866
LeftHand -33.542968 -0.000000 21.995924
LeftHandThumb1 -26.253704 0.000000 33.147579
RightShoulder -0.810571 -26.986916 -25.092810
RightArm 115.425705 18.389889 118.828642
RightForeArm 68.254731 -0.000000 67.597341
RightHand 18.669158 -0.000000 -25.076112
RightHandThumb1 -24.326973 -0.000000 -32.862282
LeftUpLeg 15.343829 6.150825 5.378024
LeftLeg 11.913082 -0.000000 -0.000000
LeftFoot -14.431679 -1.904828 -11.286012
LeftToeBase 9.661239 -0.000000 -0.000000
RightUpLeg 24.763198 -17.169319 -18.110842
RightLeg 1.644708 -0.000000 -0.000000
RightFoot -12.262770 5.157970 19.950968
RightToeBase 14.307809 -0.000000 -0.000000
852
root 0.957022 35.654981 2.887048 -29.098366 -78.862370 15.715900
Spine 7.037466 1.512598 -6.993866
Head 1.805658 -8.677380 -7.541995
LeftShoulder 6.406561 -2.491311 24.871355
LeftArm 92.634119 46.029566 -43.553606
LeftForeArm -39.088467 -0.000000 99.189388
LeftHand -33.623209 -0.000000 21.902191
LeftHandThumb1 -26.253704 0.000000 33.147579
RightShoulder -0.812543 -27.006698 -25.056887
RightArm 115.534892 18.439657 118.877152
RightForeArm 68.170432 -0.000000 66.305353
RightHand 18.722502 -0.000000 -25.093841
RightHandThumb1 -24.326973 -0.000000 -32.862282
LeftUpLeg 15.368545 6.138601 5.396970
LeftLeg 11.929292 -0.000000 -0.000000
LeftFoot -14.459159 -1.893089 -11.276720
LeftToeBase 9.719307 -0.000000 -0.000000
RightUpLeg 24.784811 -17.149457 -18.099955
RightLeg 1.660601 -0.000000 -0.000000
RightFoot -12.279031 5.154364 19.955078
RightToeBase 14.334085 -0.000000 -0.000000
853
root 0.957123 35.654576 2.883412 -29.082402 -78.880780 15.669165
Spine 7.059078 1.534304 -7.007670
Head 1.955057 -8.779988 -7.446218
LeftShoulder 6.415095 -2.511850 24.898071
LeftArm 92.629444 46.013091 -43.589265
LeftForeArm -38.991317 0.000000 99.203873
LeftHand -33.625546 -0.000000 21.796447
LeftHandThumb1 -26.253704 0.000000 33.147579
RightShoulder -0.822351 -26.954784 -25.039107
RightArm 115.566581 18.529360 118.906864
RightForeArm 67.998247 -0.000000 65.038850
RightHand 18.672265 -0.000000 -25.274006
RightHandThumb1 -24.326973 -0.000000 -32.862282
LeftUpLeg 15.394548 6.151109 5.425950
LeftLeg 11.938342 -0.000000 -0.000000
LeftFoot -14.450043 -1.922848 -11.310600
LeftToeBase 9.680919 -0.000000 -0.000000
RightUpLeg 24.802158 -17.148535 -18.093513
RightLeg 1.677859 -0.000000 -0.000000
RightFoot -12.282694 5.178270 19.948821
RightToeBase 14.367688 -0.000000 -0.000000
854
root 0.956855 35.654194 2.880387 -29.079299 -78.906219 15.634771
Spine 7.079947 1.542087 -7.016897
Head 2.080447 -8.844292 -7.359583
LeftShoulder 6.412721 -2.535358 24.932364
LeftArm 92.625778 46.008252 -43.634798
LeftForeArm -38.865866 -0.000000 99.204749
LeftHand -33.540200 -0.000000 21.888039
LeftHandThumb1 -26.253704 0.000000 33.147579
RightShoulder -0.822327 -26.931553 -25.027148
RightArm 115.624560 18.593406 118.899382
RightForeArm 67.874218 -0.000000 63.760760
RightHand 18.806636 0.000000 -25.608778
RightHandThumb1 -24.326973 -0.000000 -32.862282
LeftUpLeg 15.423361 6.168772 5.454202
LeftLeg 11.951769 -0.000000 -0.000000
LeftFoot -14.478224 -1.905771 -11.285759
LeftToeBase 9.719147 -0.000000 -0.000000
RightUpLeg 24.824164 -17.149915 -18.092468
RightLeg 1.683560 -0.000000 -0.000000
RightFoot -12.262744 5.211273 19.951293
RightToeBase 14.328036 -0.000000 -0.000000
